<?xml version="1.0" encoding="UTF-8" standalone="no"?>
<!-- Created with Inkscape (http://www.inkscape.org/) -->

<svg
   xmlns:dc="http://purl.org/dc/elements/1.1/"
   xmlns:cc="http://creativecommons.org/ns#"
   xmlns:rdf="http://www.w3.org/1999/02/22-rdf-syntax-ns#"
   xmlns:svg="http://www.w3.org/2000/svg"
   xmlns="http://www.w3.org/2000/svg"
   xmlns:sodipodi="http://sodipodi.sourceforge.net/DTD/sodipodi-0.dtd"
   xmlns:inkscape="http://www.inkscape.org/namespaces/inkscape"
   width="744.09448819"
   height="1052.3622047"
   id="svg2"
   version="1.1"
   inkscape:version="0.48.5 r10040"
   sodipodi:docname="independentSamples.svg"
   inkscape:export-filename="/home/black/write/class/de/math232-12/ODE-Recitation-Activities/notes/img/independentSamples.png"
   inkscape:export-xdpi="495.42001"
   inkscape:export-ydpi="495.42001">
  <defs
     id="defs4" />
  <sodipodi:namedview
     id="base"
     pagecolor="#ffffff"
     bordercolor="#666666"
     borderopacity="1.0"
     inkscape:pageopacity="0.0"
     inkscape:pageshadow="2"
     inkscape:zoom="0.90371094"
     inkscape:cx="375"
     inkscape:cy="520"
     inkscape:document-units="px"
     inkscape:current-layer="layer1"
     showgrid="false"
     inkscape:window-width="1072"
     inkscape:window-height="808"
     inkscape:window-x="568"
     inkscape:window-y="59"
     inkscape:window-maximized="0" />
  <metadata
     id="metadata7">
    <rdf:RDF>
      <cc:Work
         rdf:about="">
        <dc:format>image/svg+xml</dc:format>
        <dc:type
           rdf:resource="http://purl.org/dc/dcmitype/StillImage" />
        <dc:title></dc:title>
      </cc:Work>
    </rdf:RDF>
  </metadata>
  <g
     inkscape:label="Layer 1"
     inkscape:groupmode="layer"
     id="layer1">
    <path
       style="fill:none;stroke:#0000ff;stroke-width:3;stroke-linecap:butt;stroke-linejoin:miter;stroke-opacity:1;stroke-miterlimit:4;stroke-dasharray:none"
       d="m 151.19647,302.38516 c 2.54115,-2.60822 4.86266,-5.46328 7.62342,-7.82467 1.0913,-0.9334 2.62976,-1.14737 3.81172,-1.95616 0.74753,-0.5115 1.27058,-1.3041 1.90586,-1.95615 1.90586,-1.95617 3.8117,-3.91234 5.71756,-5.8685 0.63529,-0.65206 1.10229,-1.54377 1.90586,-1.95617 0.56822,-0.2916 1.33764,0.29162 1.90586,0 0.80358,-0.41239 1.15831,-1.44465 1.90586,-1.95617 1.18196,-0.80877 2.62975,-1.14737 3.81172,-1.95616 1.73492,-1.18714 4.02834,-5.00157 5.71756,-5.86849 0.56822,-0.29161 1.33765,0.2916 1.90586,0 0.80358,-0.41239 1.05355,-1.66454 1.90586,-1.95616 1.20537,-0.4124 2.60634,0.41239 3.81172,0 0.85232,-0.2916 1.10227,-1.54377 1.90585,-1.95617 1.13643,-0.58322 2.67528,0.58322 3.81172,0 0.80357,-0.41239 1.05354,-1.66455 1.90586,-1.95617 1.05397,-0.36059 9.51584,0 11.43514,0 3.17643,0 6.35286,0 9.52928,0 0.63528,0 1.45665,-0.46106 1.90586,0 0.44922,0.46108 -0.44921,1.49511 0,1.95617 0.89842,0.92214 2.91329,-0.92214 3.81172,0 0.44922,0.46108 -0.44922,1.49509 0,1.95617 0.44922,0.46108 1.45664,-0.46108 1.90586,0 0.4492,0.46108 -0.44922,1.49509 0,1.95616 0.4492,0.46108 1.45664,-0.46107 1.90586,0 0.4492,0.46108 -0.44922,1.49509 0,1.95617 0.4492,0.46106 1.33764,-0.29162 1.90584,0 0.80359,0.4124 1.05354,1.66455 1.90586,1.95617 1.20538,0.41239 2.54115,0 3.81172,0 1.27057,0 2.54115,0 3.81172,0 1.19513,0 7.38801,0.24162 7.62342,0 0.44922,-0.46108 -0.4492,-1.49511 0,-1.95617 0.44922,-0.46108 1.27057,0 1.90586,0 0.63529,0 1.27057,0 1.90586,0 5.08228,0 10.16457,0 15.24686,0 0.69989,0 7.54673,-0.0787 7.62342,0 0.44922,0.46106 -0.44922,1.49509 0,1.95617 0.44922,0.46106 1.33764,-0.29162 1.90586,0 0.80358,0.41239 1.10229,1.54375 1.90586,1.95615 0.56822,0.29161 1.45664,-0.46106 1.90586,0 0.44921,0.46108 -0.28412,1.37295 0,1.95616 1.14352,2.3474 4.57405,3.5211 5.71756,5.8685 0.28412,0.58322 -0.2841,1.37295 0,1.95617 0.40179,0.82479 1.50407,1.13136 1.90586,1.95617 0.56822,1.16641 -0.40179,2.67513 0,3.91231 0.44923,1.38322 1.45664,2.52912 1.90586,3.91234 0.2009,0.61859 -0.28411,1.37295 0,1.95616 0.40179,0.82479 1.50407,1.13138 1.90586,1.95617 0.60117,1.23407 -0.60118,8.54673 0,9.78082 2.10698,4.32518 1.18286,0.60704 3.81171,1.95616 0.80359,0.4124 1.10228,1.54378 1.90585,1.95617 0.56822,0.2916 1.33765,-0.29162 1.90586,0 0.80358,0.41239 1.10229,1.54376 1.90586,1.95617 0.56822,0.2916 1.33765,-0.29162 1.90586,0 0.80358,0.41239 1.10229,1.54375 1.90586,1.95615 0.56822,0.29161 1.45664,-0.46107 1.90586,0 0.44921,0.46108 -0.44922,1.4951 0,1.95616 0.44921,0.46108 1.33763,-0.2916 1.90585,0 0.80359,0.4124 1.27057,1.30411 1.90586,1.95617 0.63528,0.65206 1.50407,1.13138 1.90586,1.95617 0.56821,1.16643 -0.56822,2.7459 0,3.91233 0.80357,1.64958 3.00814,2.26274 3.81172,3.91232 0.2841,0.58321 -0.28412,1.37295 0,1.95616 0.40178,0.82479 1.62174,1.08135 1.90586,1.95617 0.40178,1.23718 -0.56822,2.7459 0,3.91233 0.2841,0.58322 1.45663,-0.46108 1.90585,0 0.0613,0.0629 0,5.39408 0,5.86849 0,0.92233 0.0863,9.69216 0,9.78083 -3.94328,4.04736 0.15415,-6.18494 -3.81171,1.95615 -1.27058,2.60822 1.90586,1.95617 -1.90586,1.95617 -0.63529,0 -1.27058,0 -1.90586,0 -0.63529,0 -1.33765,-0.2916 -1.90586,0 -4.71015,2.41724 0.65786,1.95616 -3.81171,1.95616 -0.63528,0 -1.90586,0.65206 -1.90586,0 0,-0.65205 1.90586,-0.65205 1.90586,0 0,1.45804 -1.45665,2.52912 -1.90586,3.91234 -0.40178,1.23718 0,2.60822 0,3.91233 0,3.26026 0,6.52054 0,9.78082 0,0.65205 0,1.30411 0,1.95616 0,0.65206 0.2841,1.37295 0,1.95615 -0.40178,0.82481 -1.50407,1.13138 -1.90586,1.95617 -0.65822,1.35119 0.669,9.09418 0,9.78083 -0.44922,0.46106 -1.45663,-0.46108 -1.90586,0 -0.89842,0.92214 0.56822,2.7459 0,3.91232 -0.40178,0.82479 -1.50407,1.13138 -1.90586,1.95617 -0.2841,0.58321 0.44923,1.49508 0,1.95616 -0.4492,0.46108 -1.45663,-0.46108 -1.90586,0 0,5.21645 0.63529,-0.65205 -1.90585,1.95617 -0.44921,0.46106 0.44922,1.49509 0,1.95617 -0.44921,0.46106 -1.45664,-0.46108 -1.90585,0 -3.94329,4.04737 6.02586,-0.15822 -1.90586,3.91231 -0.56822,0.29162 -1.45665,-0.46106 -1.90586,0 -0.44922,0.46108 0.44921,1.49511 0,1.95617 -0.44922,0.46108 -1.27057,0 -1.90586,0 -1.35087,0 -10.94238,-0.25289 -11.43514,0 -2.91897,1.49802 -1.49041,3.48592 -3.81172,5.8685 -0.4492,0.46106 -1.62174,-0.58322 -1.90586,0 0,8.90501 0.89845,0.1119 -1.90584,5.86848 -0.28412,0.58322 0.4492,1.49511 0,1.95617 -0.44922,0.46108 -1.45665,-0.46106 -1.90586,0 -0.44922,0.46108 0.2841,1.37295 0,1.95616 -0.18241,0.37446 -7.25861,7.63744 -7.62344,7.82465 -0.56822,0.29162 -1.45664,-0.46106 -1.90586,0 -0.4492,0.46108 0.44922,1.49511 0,1.95617 -0.89842,0.92216 -2.67528,-0.58322 -3.8117,0 -0.80358,0.41239 -1.10228,1.54377 -1.90586,1.95617 -0.56822,0.29162 -1.33764,-0.2916 -1.90586,0 -0.80358,0.41239 -1.10228,1.54377 -1.90586,1.95616 -0.58002,0.29767 -4.85925,0 -5.71756,0 -5.08229,0 -10.16459,0 -15.24686,0 -1.53428,0 -6.42722,-0.40926 -7.62344,0 -1.34763,0.46108 -2.54113,1.30412 -3.8117,1.95617 -1.90586,0 -3.84874,-0.38363 -5.71758,0 -1.39297,0.28594 -2.46407,1.49509 -3.81172,1.95617 -0.60269,0.20619 -1.30316,-0.2062 -1.90585,0 -1.27057,0.65205 -2.54114,1.30411 -3.81171,1.95616 -0.63529,0 -1.30318,-0.20619 -1.90586,0 -1.34765,0.46107 -2.46408,1.49509 -3.81172,1.95615 -1.10974,0.37969 -10.12377,0 -11.43515,0 -1.59711,0 -8.71926,0.4157 -9.52928,0 -0.56822,-0.2916 0.44922,-1.49508 0,-1.95615 -0.89842,-0.92215 -2.67528,0.58322 -3.81172,0 -0.80357,-0.41239 -1.10226,-1.54377 -1.90586,-1.95616 -0.56821,-0.29162 -1.45663,0.46106 -1.90586,0 -0.4492,-0.46108 0,-1.30411 0,-1.95617 0,-1.63927 -0.40501,-8.94942 0,-9.78081 0.28412,-0.58322 1.27058,0 1.90586,0 0,-0.65206 -0.20089,-1.33758 0,-1.95617 0.44923,-1.38322 1.11789,-2.69918 1.90586,-3.91234 0.29773,-0.45835 3.36064,-2.41915 1.90586,-3.91233 -0.44922,-0.46106 -1.27057,0 -1.90586,0 -1.27057,0 -2.54114,0 -3.81172,0 -2.01605,0 -12.35914,0.33592 -13.34098,0 -0.85234,-0.2916 -1.10228,-1.54375 -1.90586,-1.95615 -1.21789,-0.62502 -6.08942,0.52483 -7.62344,0 -1.34765,-0.46108 -2.46407,-1.4951 -3.8117,-1.95616 -0.6027,-0.2062 -1.33764,0.2916 -1.90586,0 -0.80358,-0.4124 -1.15833,-1.44466 -1.90586,-1.95617 -1.18196,-0.80877 -2.62976,-1.1474 -3.81172,-1.95617 -1.49508,-1.02303 -2.10706,-3.32911 -3.81172,-3.91233 -1.20536,-0.4124 -2.67526,0.58322 -3.8117,0 -0.56822,-0.2916 0.4492,-1.49509 0,-1.95617 -0.44922,-0.46106 -1.45666,0.46108 -1.90586,0 -0.44922,-0.46106 0.4492,-1.49509 0,-1.95615 -0.44922,-0.46108 -1.45664,0.46106 -1.90586,0 -0.89843,-0.92216 0.89843,-2.99019 0,-3.91233 -0.44922,-0.46108 -1.45664,0.46106 -1.90586,0 -0.0767,-0.0787 0,-7.10628 0,-7.82467 0,-0.65204 0,-1.30409 0,-1.95615 0,-0.65205 -0.44921,-1.4951 0,-1.95616 0.44922,-0.46108 1.45664,0.46106 1.90586,0 0.44922,-0.46108 -0.44922,-1.49511 0,-1.95617 0.44922,-0.46108 1.27057,0 1.90586,0 0,-0.65206 -0.44922,-1.49509 0,-1.95617 0.4492,-0.46108 2.54114,0 1.90586,0 -1.27057,0 -2.54115,0 -3.81172,0 -0.63529,0 -1.33764,0.2916 -1.90586,0 -0.80358,-0.41239 -1.10227,-1.54377 -1.90586,-1.95616 -1.13642,-0.58322 -2.67528,0.58321 -3.8117,0 -0.88257,-0.45293 -6.50252,-6.67415 -7.62344,-7.82465 -0.63529,-0.65206 -1.27058,-1.30412 -1.90586,-1.95617 -0.63529,-0.65206 -1.50406,-1.13138 -1.90584,-1.95617 -0.28412,-0.58321 0.2841,-1.37295 0,-1.95616 -0.40181,-0.82479 -1.50408,-1.13137 -1.90587,-1.95617 -0.28411,-0.58322 0.28411,-1.37295 0,-1.95615 -0.40179,-0.82481 -1.50407,-1.13138 -1.905857,-1.95617 -0.568217,-1.16643 0.568217,-2.7459 0,-3.91233 -0.40179,-0.82479 -1.504066,-1.13138 -1.905856,-1.95617 -0.344612,-0.7074 0,-8.42022 0,-9.78081 0,-0.65206 -0.449215,-1.49509 0,-1.95617 0.449214,-0.46108 1.456641,0.46108 1.905856,0 0.449217,-0.46108 -0.284108,-1.37295 0,-1.95617 0.401787,-0.82479 1.504067,-1.13138 1.905857,-1.95616 0.28411,-0.58322 -0.44921,-1.49509 0,-1.95617 0.44922,-0.46106 1.45664,0.46108 1.90587,0 0.62824,-0.64483 -0.45973,-6.40908 0,-7.82465 0.2841,-0.87482 1.50405,-1.13138 1.90584,-1.95617 0.28412,-0.58321 -0.2841,-1.37295 0,-1.95616 0.40179,-0.82479 1.50407,-1.13136 1.90586,-1.95617 0.28412,-0.5832 -0.2841,-1.37293 0,-1.95615 0.40179,-0.82481 1.50407,-1.13138 1.90586,-1.95617 0.56822,-1.16643 -0.89843,-2.99019 0,-3.91233 0.44922,-0.46108 1.45664,0.46108 1.90586,0 0.44922,-0.46108 0,-1.30411 0,-1.95617 0.63528,0 1.45664,0.46108 1.90586,0 0.4492,-0.46106 -0.44922,-1.49508 0,-1.95616 0.4492,-0.46107 1.27057,0 1.90586,0 0,-0.65206 -0.44922,-1.49509 0,-1.95615 0.4492,-0.46108 1.45664,0.46106 1.90584,0 0.44922,-0.46108 -0.4492,-1.49511 0,-1.95617 0.44922,-0.46108 1.33764,0.2916 1.90586,0 0.50602,-0.25969 5.46457,-5.34912 5.71758,-5.8685 0.2841,-0.58322 -0.44922,-1.49509 0,-1.95617 0.4492,-0.46106 1.33764,0.29162 1.90586,0 0.80358,-0.41239 1.10226,-1.54375 1.90586,-1.95616 0.56822,-0.2916 1.33764,0.29161 1.90584,0 0.80359,-0.4124 1.10228,-1.54376 1.90586,-1.95615 0.56822,-0.29162 1.45666,0.46106 1.90586,0 0.44922,-0.46108 -0.4492,-1.49511 0,-1.95617 0.44922,-0.46108 1.27057,0 1.90586,0 5.08229,0 10.16457,0 15.24686,0 z"
       id="path2987"
       inkscape:connector-curvature="0"
       inkscape:export-filename="/home/black/write/class/stat/stat383-14/class/img/independentSamples.png"
       inkscape:export-xdpi="1198.54"
       inkscape:export-ydpi="1198.54" />
    <path
       style="fill:none;stroke:#ff0000;stroke-width:3;stroke-linecap:butt;stroke-linejoin:miter;stroke-opacity:1;stroke-miterlimit:4;stroke-dasharray:none"
       d="m 457.00454,296.58954 c 10.1694,-10.1694 0.52027,-1.45339 6.63929,-5.53274 0.43402,-0.28935 0.67252,-0.8172 1.10655,-1.10655 0.68625,-0.4575 1.4754,-0.7377 2.2131,-1.10655 0.73769,-0.36885 1.44731,-0.80023 2.21309,-1.10654 1.08298,-0.4332 2.23667,-0.67336 3.31965,-1.10655 1.53156,-0.61263 2.8259,-1.81303 4.42619,-2.2131 0.71568,-0.17892 1.4754,0 2.2131,0 0.7377,0 1.4754,0 2.2131,0 0.57863,0 4.13523,-0.14548 4.42619,0 0.46656,0.23328 0.63999,0.87327 1.10655,1.10655 0.32991,0.16495 0.7377,0 1.10655,0 0.7377,0 1.51325,-0.23328 2.21309,0 0.49487,0.16495 0.63999,0.87327 1.10655,1.10655 0.32991,0.16495 0.75663,-0.11664 1.10655,0 0.78245,0.26081 1.43065,0.84573 2.2131,1.10655 0.34992,0.11664 0.77664,-0.16496 1.10655,0 0.46656,0.23328 0.63998,0.87326 1.10655,1.10654 0.3299,0.16496 0.77663,-0.16495 1.10654,0 0.46657,0.23329 0.63999,0.87327 1.10655,1.10655 0.65982,0.32991 1.69147,-0.52163 2.2131,0 0.26082,0.26082 -0.34992,0.98991 0,1.10655 1.04976,0.34992 2.2131,0 3.31964,0 1.10655,0 2.2131,0 3.31965,0 4.05735,0 8.11469,0 12.17203,0 0.95892,0 3.7852,-0.21366 4.4262,0 0.78245,0.26082 1.43065,0.84573 2.2131,1.10655 0.34992,0.11664 0.75662,-0.11664 1.10654,0 0.78245,0.26082 1.43065,0.84573 2.2131,1.10655 0.34992,0.11664 0.77664,-0.16496 1.10655,0 0.46656,0.23328 0.63999,0.87327 1.10655,1.10655 0.32991,0.16495 0.84573,-0.26082 1.10655,0 0.26081,0.26081 -0.26082,0.84573 0,1.10655 0.26081,0.26081 0.77664,-0.16496 1.10654,0 0.93313,0.46656 1.27998,1.74653 2.2131,2.21309 0.32991,0.16496 0.84573,-0.26081 1.10655,0 2.28949,2.28949 -3.49864,-0.0895 1.10655,2.2131 0.32991,0.16495 0.77664,-0.16496 1.10655,0 0.46656,0.23328 0.7377,0.7377 1.10655,1.10655 0.7377,0 1.49742,-0.17892 2.21309,0 1.6003,0.40007 2.8259,1.81302 4.4262,2.21309 0.71567,0.17892 1.49742,-0.17891 2.21309,0 0.80015,0.20004 1.4754,0.7377 2.2131,1.10655 0.7377,0.36885 1.4754,0.7377 2.2131,1.10655 1.4754,0.7377 3.05369,1.2981 4.42619,2.2131 0.43403,0.28935 0.61169,0.94159 1.10655,1.10655 0.69984,0.23328 1.51326,-0.23328 2.2131,0 0.50514,0.16838 2.8213,2.8213 3.31964,3.31964 1.4754,1.4754 2.9508,2.9508 4.4262,4.4262 0.36885,0.36885 0.7377,0.7377 1.10655,1.10655 0.36885,0.36885 0.87326,0.63998 1.10654,1.10654 0.16496,0.32991 -0.16495,0.77664 0,1.10655 0.23329,0.46656 0.87327,0.63999 1.10655,1.10655 0.16496,0.32991 -0.16495,0.77664 0,1.10655 0.23328,0.46656 0.87327,0.63999 1.10655,1.10655 0.32991,0.65982 -0.52163,1.69146 0,2.2131 0.26082,0.26081 0.84573,-0.26082 1.10655,0 0.26082,0.26081 -0.2046,0.79964 0,1.10654 0.5787,0.86805 1.4754,1.4754 2.2131,2.2131 2.21309,2.2131 4.42619,4.42619 6.63929,6.63929 0.86949,0.86949 5.18032,4.8279 5.53274,5.53274 0.16496,0.32991 -0.16495,0.77664 0,1.10655 0.23328,0.46656 0.87327,0.63999 1.10655,1.10655 0.44262,0.88524 -0.44262,2.43441 0,3.31965 0.23328,0.46656 0.87327,0.63998 1.10655,1.10655 0.11349,0.22698 0.15605,3.16359 0,3.31964 -0.26082,0.26082 -0.77664,-0.16495 -1.10655,0 -0.46656,0.23328 -0.63999,0.87327 -1.10655,1.10655 -0.32991,0.16495 -0.77664,-0.16495 -1.10655,0 -3.66996,3.66996 1.04327,-0.52163 -2.21309,1.10655 -0.46657,0.23328 -0.63999,0.87327 -1.10655,1.10655 -0.32991,0.16495 -1.27151,-0.32991 -1.10655,0 1.10655,2.21309 2.2131,1.65982 3.31964,3.31964 0.45751,0.68625 0.52335,1.6299 1.10655,2.2131 0.5832,0.5832 1.7556,0.4203 2.2131,1.10655 0.4092,0.6138 -0.23328,1.51325 0,2.21309 0.16495,0.49487 0.8172,0.67253 1.10655,1.10655 0.4575,0.68626 0.7377,1.4754 1.10655,2.2131 0.36885,0.7377 0.84573,1.43065 1.10655,2.2131 0.30914,0.92742 -0.36667,3.69285 0,4.42619 0.23328,0.46656 0.87326,0.63999 1.10654,1.10655 0.16838,0.33676 0,2.8213 0,3.31965 0,0.43743 0.2363,5.06015 0,5.53274 -0.23328,0.46656 -0.87326,0.63998 -1.10654,1.10655 -0.16496,0.32991 0.16495,0.77664 0,1.10655 -0.23329,0.46656 -0.87327,0.63998 -1.10655,1.10654 -0.16496,0.32991 0.16495,0.77664 0,1.10655 -0.54444,1.08888 -3.88176,3.33732 -4.4262,4.4262 -0.16495,0.32991 0.26082,0.84573 0,1.10654 -0.26081,0.26082 -0.77664,-0.16495 -1.10655,0 -0.46656,0.23329 -0.63998,0.87327 -1.10654,1.10655 -0.32991,0.16496 -0.77664,-0.16495 -1.10655,0 -0.46656,0.23328 -0.63999,0.87327 -1.10655,1.10655 -0.32991,0.16496 -0.7377,0 -1.10655,0 -0.36885,0.36885 -0.63999,0.87327 -1.10655,1.10655 -0.32991,0.16496 -0.77664,-0.16495 -1.10655,0 -0.46656,0.23328 -0.63998,0.87327 -1.10655,1.10655 -0.65981,0.32991 -1.69146,-0.52163 -2.21309,0 -0.26082,0.26082 0,0.7377 0,1.10655 0,2.21309 0,4.42619 0,6.63929 0,0.36885 0,0.7377 0,1.10655 0,0.36885 0.16495,0.77664 0,1.10655 -0.23328,0.46656 -0.87327,0.63998 -1.10655,1.10654 -0.32991,0.65982 0.52163,1.69147 0,2.2131 -0.26082,0.26082 -0.84573,-0.26081 -1.10655,0 -2.28949,2.28949 3.49864,-0.0895 -1.10655,2.2131 -0.32991,0.16495 -0.84573,-0.26082 -1.10655,0 -0.26081,0.26081 0.16496,0.77664 0,1.10655 -0.23328,0.46656 -0.7377,0.7377 -1.10655,1.10655 -0.36884,0.36884 -0.67252,0.81719 -1.10654,1.10654 0.12601,2.09628 -2.58195,0.7377 -3.31965,1.10655 -0.46656,0.23328 -0.63999,0.87327 -1.10655,1.10655 -0.32991,0.16496 -0.77664,-0.16495 -1.10655,0 -0.46656,0.23328 -0.63998,0.87327 -1.10655,1.10655 -0.3299,0.16495 -0.73769,0 -1.10654,0 -0.36885,0 -0.77664,-0.16496 -1.10655,0 -0.46656,0.23328 -0.63999,0.87327 -1.10655,1.10655 -0.70711,0.35355 -3.53553,-0.29689 -4.42619,0 -0.78245,0.26081 -1.43065,0.84573 -2.2131,1.10655 -1.04977,0.34992 -2.24614,-0.26838 -3.31965,0 -0.80014,0.20003 -1.43065,0.84573 -2.21309,1.10654 -0.72221,0.24074 -5.31629,0 -6.6393,0 -0.36884,0 -0.73769,0 -1.10654,0 -0.36885,0 -0.77664,-0.16495 -1.10655,0 -2.73473,1.36737 0.38195,1.10655 -2.2131,1.10655 -0.57864,0 -4.13524,-0.14548 -4.42619,0 -0.46657,0.23328 -0.7377,0.7377 -1.10655,1.10655 -0.7377,0.7377 -1.37849,1.58714 -2.2131,2.2131 -0.65982,0.49486 -1.62989,0.52335 -2.2131,1.10655 -0.5832,0.5832 -0.64904,1.52684 -1.10654,2.21309 -1.01486,1.52228 -1.7071,1.13807 -3.31965,2.2131 -1.00731,0.67154 -2.33887,2.82926 -3.31965,3.31965 -0.3299,0.16495 -0.77664,-0.16496 -1.10654,0 -0.46657,0.23328 -0.63999,0.87326 -1.10655,1.10655 -0.32991,0.16495 -0.7377,0 -1.10655,0 -0.36885,0.36885 -0.63999,0.87326 -1.10655,1.10654 -0.32991,0.16496 -0.77664,-0.16495 -1.10655,0 -0.46656,0.23329 -0.61168,0.9416 -1.10655,1.10655 -0.69984,0.23328 -1.51325,-0.23328 -2.21309,0 -0.49487,0.16496 -0.63999,0.87327 -1.10655,1.10655 -0.40331,0.20166 -4.89515,0 -5.53275,0 -2.58194,0 -5.16389,0 -7.74583,0 -0.7377,0 -1.49743,0.17892 -2.2131,0 -0.80015,-0.20004 -1.41295,-0.90651 -2.2131,-1.10655 -0.71567,-0.17892 -1.4754,0 -2.2131,0 -0.36885,0 -0.77664,0.16496 -1.10654,0 -0.46657,-0.23328 -0.63999,-0.87326 -1.10655,-1.10655 -0.65982,-0.3299 -1.55328,0.32991 -2.2131,0 -0.46656,-0.23328 -0.63999,-0.87326 -1.10655,-1.10654 -0.32991,-0.16496 -0.77664,0.16495 -1.10655,0 -0.46656,-0.23329 -0.67252,-0.8172 -1.10655,-1.10655 -0.68625,-0.4575 -1.52684,-0.64905 -2.21309,-1.10655 -1.27679,-0.85119 -2.04286,-2.46846 -3.31965,-3.31965 -0.68625,-0.4575 -1.62989,-0.52334 -2.2131,-1.10655 -0.5832,-0.5832 -0.52334,-1.62989 -1.10654,-2.21309 -0.26082,-0.26082 -0.77664,0.16495 -1.10655,0 -4.60519,-2.3026 1.18294,0.0764 -1.10655,-2.2131 -0.26082,-0.26082 -0.84573,0.26082 -1.10655,0 -0.26082,-0.26082 0.16496,-0.77664 0,-1.10655 -0.23328,-0.46656 -0.87327,-0.63998 -1.10655,-1.10655 -0.32991,-0.65981 0.52163,-1.69146 0,-2.21309 -0.26081,-0.26082 -0.75662,0.11664 -1.10655,0 -0.78244,-0.26082 -1.43065,-0.84574 -2.21309,-1.10655 -0.34992,-0.11664 -0.77664,0.16495 -1.10655,0 -1.17701,-0.58851 -1.03609,-1.62459 -2.2131,-2.2131 -0.32991,-0.16495 -0.77664,0.16496 -1.10655,0 -0.46656,-0.23328 -0.61168,-0.94159 -1.10655,-1.10655 -0.69984,-0.23328 -1.51325,0.23328 -2.21309,0 -0.49487,-0.16495 -0.61169,-0.94159 -1.10655,-1.10655 -0.69984,-0.23328 -1.51326,0.23328 -2.2131,0 -0.49486,-0.16495 -0.7377,-0.7377 -1.10655,-1.10654 -0.7377,-0.36885 -1.41295,-0.90652 -2.21309,-1.10655 -5.03733,0 -0.0633,0.52163 -3.31965,-1.10655 -0.65982,-0.32991 -1.69146,0.52163 -2.2131,0 -0.26081,-0.26082 0.26082,-0.84573 0,-1.10655 -0.52163,-0.52163 -1.55328,0.32991 -2.21309,0 -0.46657,-0.23328 -0.63999,-0.87327 -1.10655,-1.10655 -0.32991,-0.16495 -0.77664,0.16496 -1.10655,0 -0.46656,-0.23328 -0.63999,-0.87327 -1.10655,-1.10655 -0.32991,-0.16495 -0.77664,0.16496 -1.10655,0 -0.93312,-0.46656 -1.27997,-1.74653 -2.21309,-2.21309 -0.32991,-0.16496 -0.84574,0.26081 -1.10655,0 -0.26082,-0.26082 0.16495,-0.77664 0,-1.10655 -0.46657,-0.93313 -1.74654,-1.27998 -2.2131,-2.2131 -0.16495,-0.32991 0.16495,-0.77664 0,-1.10655 -0.23328,-0.46656 -0.87327,-0.63999 -1.10655,-1.10655 -0.16495,-0.32991 0.16496,-0.77664 0,-1.10655 -0.23328,-0.46656 -0.87327,-0.63998 -1.10655,-1.10654 -0.16495,-0.32991 0.16496,-0.77664 0,-1.10655 -0.23328,-0.46656 -0.87326,-0.63999 -1.10655,-1.10655 -0.3299,-0.65982 0.32991,-1.55328 0,-2.2131 -0.23328,-0.46656 -0.87326,-0.63998 -1.10654,-1.10655 -0.16496,-0.32991 0,-0.7377 0,-1.10655 0,-0.36884 0,-0.73769 0,-1.10654 0,-2.31853 0.32489,-3.38558 -1.10655,-5.53275 -1.01486,-1.52228 -1.7071,-1.13806 -3.31965,-2.21309 -0.43402,-0.28935 -0.7377,-0.7377 -1.10655,-1.10655 -0.36885,-0.36885 -0.87326,-0.63999 -1.10655,-1.10655 -0.16495,-0.32991 0.16496,-0.77664 0,-1.10655 -0.23328,-0.46656 -0.87326,-0.63999 -1.10654,-1.10655 -0.16496,-0.32991 0.16495,-0.77664 0,-1.10655 -2.53212,-5.06423 0.45863,4.69555 -2.2131,-3.31964 -0.11664,-0.34992 0.16495,-0.77664 0,-1.10655 -0.46656,-0.93312 -1.74654,-1.27997 -2.2131,-2.2131 -0.16495,-0.32991 0.16496,-0.77664 0,-1.10655 -0.23328,-0.46656 -0.87327,-0.63998 -1.10655,-1.10654 -0.14305,-0.2861 0,-5.85497 0,-6.6393 0,-0.26836 -0.0356,-3.28405 0,-3.31964 0.26082,-0.26082 0.84574,0.26082 1.10655,0 0.26082,-0.26082 -0.26081,-0.84573 0,-1.10655 0.26082,-0.26082 0.84573,0.26082 1.10655,0 0.84465,-0.84465 -0.93369,-1.95382 -1.10655,-2.2131 -0.4575,-0.68625 -0.64905,-1.52684 -1.10655,-2.21309 -0.28935,-0.43403 -0.94159,-0.61169 -1.10655,-1.10655 -0.23328,-0.69984 0.32991,-1.55328 0,-2.2131 -0.46656,-0.93312 -1.74653,-1.27997 -2.21309,-2.2131 -0.32991,-0.65981 0.23328,-1.51325 0,-2.21309 -0.16496,-0.49487 -0.7377,-0.7377 -1.10655,-1.10655 -0.36885,-0.7377 -0.84573,-1.43065 -1.10655,-2.2131 -0.25371,-0.76112 0.32644,-2.66676 0,-3.31964 -0.23328,-0.46657 -0.94159,-0.61169 -1.10655,-1.10655 -0.16884,-0.50654 0,-4.91512 0,-5.53275 0,-2.95079 0,-5.90159 0,-8.85238 0,-1.84425 0,-3.6885 0,-5.53275 0,-0.36885 -0.26081,-0.84573 0,-1.10654 0.52163,-0.52164 1.69147,0.52163 2.2131,0 0.26082,-0.26082 -0.16496,-0.77664 0,-1.10655 2.30259,-4.60519 -0.0764,1.18294 2.2131,-1.10655 0.26081,-0.26082 -0.26082,-0.84573 0,-1.10655 2.28948,-2.28949 -0.0895,3.49864 2.21309,-1.10655 0.16496,-0.32991 -0.26081,-0.84573 0,-1.10655 0.26082,-0.26081 0.84574,0.26082 1.10655,0 0.52163,-0.52163 -0.52163,-1.69146 0,-2.21309 0.26082,-0.26082 0.84573,0.26081 1.10655,0 0.52163,-0.52164 -0.32991,-1.55328 0,-2.2131 0.23328,-0.46656 0.87327,-0.63999 1.10655,-1.10655 0.32991,-0.65982 -0.52163,-1.69146 0,-2.2131 0.26081,-0.26081 0.84573,0.26082 1.10655,0 0.26081,-0.26081 -0.16496,-0.77664 0,-1.10655 0.46656,-0.93312 1.6344,-1.34504 2.21309,-2.21309 0.45751,-0.68625 0.64905,-1.52685 1.10655,-2.2131 0.28935,-0.43402 0.87327,-0.63999 1.10655,-1.10655 0.16496,-0.32991 -0.26081,-0.84573 0,-1.10655 2.28949,-2.28948 -0.0895,3.49865 2.2131,-1.10654 0.16495,-0.32991 -0.26082,-0.84574 0,-1.10655 0.26081,-0.26082 0.77664,0.16495 1.10655,0 0.46656,-0.23328 0.63998,-0.87327 1.10655,-1.10655 0.3299,-0.16496 0.77664,0.16495 1.10654,0 4.60519,-2.3026 -1.18294,0.0764 1.10655,-2.2131 0.26082,-0.26081 0.7377,0 1.10655,0 0.76965,0 5.13258,0.20008 5.53274,0 3.66996,-3.66996 -1.04326,0.52163 2.2131,-1.10655 1.32786,-0.66393 1.99179,-2.65571 3.31965,-3.31964 0.32991,-0.16496 0.7377,0 1.10654,0 0.36885,-0.36885 0.63999,-0.87327 1.10655,-1.10655 0.32991,-0.16496 0.77664,0.16495 1.10655,0 0.93313,-0.46656 1.27998,-1.74654 2.2131,-2.2131 0.29096,-0.14548 3.84756,0 4.42619,0 0.26837,0 3.28406,-0.0356 3.31965,0 1.10769,1.10769 -1.10769,1.10541 0,2.2131 0.26081,0.26081 0.84573,-0.26082 1.10655,0 0.52163,0.52163 -0.32991,1.55328 0,2.2131 0.23328,0.46656 0.87326,0.63998 1.10655,1.10654 0.16495,0.32991 0,0.7377 0,1.10655 0,3.09287 0.13698,0.76408 -2.2131,6.63929 z"
       id="path2991"
       inkscape:connector-curvature="0"
       inkscape:export-filename="/home/black/write/class/stat/stat383-14/class/img/independentSamples.png"
       inkscape:export-xdpi="1198.54"
       inkscape:export-ydpi="1198.54" />
    <path
       sodipodi:type="arc"
       style="fill:#ff0000;fill-opacity:0.56807514;stroke:#0000ff;stroke-width:3;stroke-linecap:square;stroke-linejoin:miter;stroke-miterlimit:4;stroke-opacity:1;stroke-dasharray:none;stroke-dashoffset:0"
       id="path3761"
       sodipodi:cx="154.36353"
       sodipodi:cy="345.27768"
       sodipodi:rx="4.9794683"
       sodipodi:ry="6.6392913"
       d="m 159.2144,346.7768 a 4.9794683,6.6392913 0 1 1 0.0901,-0.67562"
       sodipodi:start="0.22775935"
       sodipodi:end="6.4075403"
       sodipodi:open="true"
       inkscape:export-filename="/home/black/write/class/stat/stat383-14/class/img/independentSamples.png"
       inkscape:export-xdpi="1198.54"
       inkscape:export-ydpi="1198.54" />
    <path
       sodipodi:type="arc"
       style="fill:#ff0000;fill-opacity:0.56807514;stroke:#0000ff;stroke-width:3;stroke-linecap:square;stroke-linejoin:miter;stroke-miterlimit:4;stroke-opacity:1;stroke-dasharray:none;stroke-dashoffset:0"
       id="path3763"
       sodipodi:cx="187.0067"
       sodipodi:cy="326.46634"
       sodipodi:rx="5.5327425"
       sodipodi:ry="4.4261942"
       d="m 192.39656,327.46575 a 5.5327425,4.4261942 0 1 1 0.10016,-0.45041"
       sodipodi:start="0.22775935"
       sodipodi:end="6.4075403"
       sodipodi:open="true"
       inkscape:export-filename="/home/black/write/class/stat/stat383-14/class/img/independentSamples.png"
       inkscape:export-xdpi="1198.54"
       inkscape:export-ydpi="1198.54" />
    <path
       sodipodi:type="arc"
       style="fill:#ff0000;fill-opacity:0.56807514;stroke:#0000ff;stroke-width:3;stroke-linecap:square;stroke-linejoin:miter;stroke-miterlimit:4;stroke-opacity:1;stroke-dasharray:none;stroke-dashoffset:0"
       id="path3765"
       sodipodi:cx="189.77307"
       sodipodi:cy="366.30209"
       sodipodi:rx="7.1925654"
       sodipodi:ry="4.4261942"
       d="m 196.77989,367.30151 a 7.1925654,4.4261942 0 1 1 0.1302,-0.45041"
       sodipodi:start="0.22775935"
       sodipodi:end="6.4075403"
       sodipodi:open="true"
       inkscape:export-filename="/home/black/write/class/stat/stat383-14/class/img/independentSamples.png"
       inkscape:export-xdpi="1198.54"
       inkscape:export-ydpi="1198.54" />
    <path
       sodipodi:type="arc"
       style="fill:#ff0000;fill-opacity:0.56807514;stroke:#0000ff;stroke-width:3;stroke-linecap:square;stroke-linejoin:miter;stroke-miterlimit:4;stroke-opacity:1;stroke-dasharray:none;stroke-dashoffset:0"
       id="path3767"
       sodipodi:cx="232.92847"
       sodipodi:cy="345.27768"
       sodipodi:rx="2.7663713"
       sodipodi:ry="4.4261942"
       d="m 235.6234,346.27709 a 2.7663713,4.4261942 0 0 0 0.0501,-0.45041"
       sodipodi:start="0.22775935"
       sodipodi:end="0.12435499"
       sodipodi:open="true"
       inkscape:export-filename="/home/black/write/class/stat/stat383-14/class/img/independentSamples.png"
       inkscape:export-xdpi="1198.54"
       inkscape:export-ydpi="1198.54" />
    <path
       sodipodi:type="arc"
       style="fill:#ff0000;fill-opacity:0.56807514;stroke:#0000ff;stroke-width:3;stroke-linecap:square;stroke-linejoin:miter;stroke-miterlimit:4;stroke-opacity:1;stroke-dasharray:none;stroke-dashoffset:0"
       id="path3769"
       sodipodi:cx="229.60881"
       sodipodi:cy="386.77325"
       sodipodi:rx="8.2991142"
       sodipodi:ry="4.9794683"
       d="m 237.6936,387.89759 a 8.2991142,4.9794683 0 1 1 0.15024,-0.50671"
       sodipodi:start="0.22775935"
       sodipodi:end="6.4075403"
       sodipodi:open="true"
       inkscape:export-filename="/home/black/write/class/stat/stat383-14/class/img/independentSamples.png"
       inkscape:export-xdpi="1198.54"
       inkscape:export-ydpi="1198.54" />
    <path
       sodipodi:type="arc"
       style="fill:#ff0000;fill-opacity:0.56807514;stroke:#0000ff;stroke-width:3;stroke-linecap:square;stroke-linejoin:miter;stroke-miterlimit:4;stroke-opacity:1;stroke-dasharray:none;stroke-dashoffset:0"
       id="path3771"
       sodipodi:cx="267.78473"
       sodipodi:cy="355.78989"
       sodipodi:rx="6.6392913"
       sodipodi:ry="8.2991142"
       d="m 274.25256,357.66379 a 6.6392913,8.2991142 0 0 0 0.12019,-0.84453"
       sodipodi:start="0.22775935"
       sodipodi:end="0.12435499"
       sodipodi:open="true"
       inkscape:export-filename="/home/black/write/class/stat/stat383-14/class/img/independentSamples.png"
       inkscape:export-xdpi="1198.54"
       inkscape:export-ydpi="1198.54" />
    <path
       sodipodi:type="arc"
       style="fill:#ff0000;fill-opacity:0.56807514;stroke:#0000ff;stroke-width:3;stroke-linecap:square;stroke-linejoin:miter;stroke-miterlimit:4;stroke-opacity:1;stroke-dasharray:none;stroke-dashoffset:0"
       id="path3773"
       sodipodi:cx="237.35466"
       sodipodi:cy="303.22882"
       sodipodi:rx="7.1925654"
       sodipodi:ry="3.3196456"
       d="m 244.36148,303.97838 a 7.1925654,3.3196456 0 1 1 0.1302,-0.33781"
       sodipodi:start="0.22775935"
       sodipodi:end="6.4075403"
       sodipodi:open="true"
       inkscape:export-filename="/home/black/write/class/stat/stat383-14/class/img/independentSamples.png"
       inkscape:export-xdpi="1198.54"
       inkscape:export-ydpi="1198.54" />
    <path
       sodipodi:type="arc"
       style="fill:#2b00ee;fill-opacity:0.56807512000000004;stroke:#ff0000;stroke-width:3;stroke-linecap:square;stroke-linejoin:miter;stroke-miterlimit:4;stroke-opacity:1;stroke-dasharray:none;stroke-dashoffset:0"
       id="path3775"
       sodipodi:cx="454.23816"
       sodipodi:cy="325.91309"
       sodipodi:rx="6.0860167"
       sodipodi:ry="4.9794683"
       d="m 460.167,327.03743 a 6.0860167,4.9794683 0 1 1 0.11018,-0.50672"
       sodipodi:start="0.22775935"
       sodipodi:end="6.4075403"
       sodipodi:open="true"
       inkscape:export-filename="/home/black/write/class/stat/stat383-14/class/img/independentSamples.png"
       inkscape:export-xdpi="1198.54"
       inkscape:export-ydpi="1198.54" />
    <path
       transform="translate(87.971056,52.561048)"
       sodipodi:type="arc"
       style="fill:#2b00ee;fill-opacity:0.56807514;stroke:#ff0000;stroke-width:3;stroke-linecap:square;stroke-linejoin:miter;stroke-miterlimit:4;stroke-opacity:1;stroke-dasharray:none;stroke-dashoffset:0"
       id="path3775-5"
       sodipodi:cx="454.23816"
       sodipodi:cy="325.91309"
       sodipodi:rx="6.0860167"
       sodipodi:ry="4.9794683"
       d="m 460.167,327.03743 a 6.0860167,4.9794683 0 1 1 0.11018,-0.50672"
       sodipodi:start="0.22775935"
       sodipodi:end="6.4075403"
       sodipodi:open="true"
       inkscape:export-filename="/home/black/write/class/stat/stat383-14/class/img/independentSamples.png"
       inkscape:export-xdpi="1198.54"
       inkscape:export-ydpi="1198.54" />
    <path
       transform="translate(58.094246,39.282466)"
       sodipodi:type="arc"
       style="fill:#2b00ee;fill-opacity:0.56807514;stroke:#ff0000;stroke-width:3;stroke-linecap:square;stroke-linejoin:miter;stroke-miterlimit:4;stroke-opacity:1;stroke-dasharray:none;stroke-dashoffset:0"
       id="path3775-2"
       sodipodi:cx="454.23816"
       sodipodi:cy="325.91309"
       sodipodi:rx="6.0860167"
       sodipodi:ry="4.9794683"
       d="m 460.167,327.03743 a 6.0860167,4.9794683 0 1 1 0.11018,-0.50672"
       sodipodi:start="0.22775935"
       sodipodi:end="6.4075403"
       sodipodi:open="true"
       inkscape:export-filename="/home/black/write/class/stat/stat383-14/class/img/independentSamples.png"
       inkscape:export-xdpi="1198.54"
       inkscape:export-ydpi="1198.54" />
    <path
       transform="translate(65.840086,12.725302)"
       sodipodi:type="arc"
       style="fill:#2b00ee;fill-opacity:0.56807514;stroke:#ff0000;stroke-width:3;stroke-linecap:square;stroke-linejoin:miter;stroke-miterlimit:4;stroke-opacity:1;stroke-dasharray:none;stroke-dashoffset:0"
       id="path3775-0"
       sodipodi:cx="454.23816"
       sodipodi:cy="325.91309"
       sodipodi:rx="6.0860167"
       sodipodi:ry="4.9794683"
       d="m 460.167,327.03743 a 6.0860167,4.9794683 0 1 1 0.11018,-0.50672"
       sodipodi:start="0.22775935"
       sodipodi:end="6.4075403"
       sodipodi:open="true"
       inkscape:export-filename="/home/black/write/class/stat/stat383-14/class/img/independentSamples.png"
       inkscape:export-xdpi="1198.54"
       inkscape:export-ydpi="1198.54" />
    <path
       transform="translate(-3.8724711,35.96282)"
       sodipodi:type="arc"
       style="fill:#2b00ee;fill-opacity:0.56807514;stroke:#ff0000;stroke-width:3;stroke-linecap:square;stroke-linejoin:miter;stroke-miterlimit:4;stroke-opacity:1;stroke-dasharray:none;stroke-dashoffset:0"
       id="path3775-3"
       sodipodi:cx="454.23816"
       sodipodi:cy="325.91309"
       sodipodi:rx="6.0860167"
       sodipodi:ry="4.9794683"
       d="m 460.167,327.03743 a 6.0860167,4.9794683 0 1 1 0.11018,-0.50672"
       sodipodi:start="0.22775935"
       sodipodi:end="6.4075403"
       sodipodi:open="true"
       inkscape:export-filename="/home/black/write/class/stat/stat383-14/class/img/independentSamples.png"
       inkscape:export-xdpi="1198.54"
       inkscape:export-ydpi="1198.54" />
    <path
       transform="translate(28.217436,68.052728)"
       sodipodi:type="arc"
       style="fill:#2b00ee;fill-opacity:0.56807514;stroke:#ff0000;stroke-width:3;stroke-linecap:square;stroke-linejoin:miter;stroke-miterlimit:4;stroke-opacity:1;stroke-dasharray:none;stroke-dashoffset:0"
       id="path3775-7"
       sodipodi:cx="454.23816"
       sodipodi:cy="325.91309"
       sodipodi:rx="6.0860167"
       sodipodi:ry="4.9794683"
       d="m 460.167,327.03743 a 6.0860167,4.9794683 0 1 1 0.11018,-0.50672"
       sodipodi:start="0.22775935"
       sodipodi:end="6.4075403"
       sodipodi:open="true"
       inkscape:export-filename="/home/black/write/class/stat/stat383-14/class/img/independentSamples.png"
       inkscape:export-xdpi="1198.54"
       inkscape:export-ydpi="1198.54" />
    <path
       transform="translate(27.110887,14.938399)"
       sodipodi:type="arc"
       style="fill:#2b00ee;fill-opacity:0.56807514;stroke:#ff0000;stroke-width:3;stroke-linecap:square;stroke-linejoin:miter;stroke-miterlimit:4;stroke-opacity:1;stroke-dasharray:none;stroke-dashoffset:0"
       id="path3775-50"
       sodipodi:cx="454.23816"
       sodipodi:cy="325.91309"
       sodipodi:rx="6.0860167"
       sodipodi:ry="4.9794683"
       d="m 460.167,327.03743 a 6.0860167,4.9794683 0 1 1 0.11018,-0.50672"
       sodipodi:start="0.22775935"
       sodipodi:end="6.4075403"
       sodipodi:open="true"
       inkscape:export-filename="/home/black/write/class/stat/stat383-14/class/img/independentSamples.png"
       inkscape:export-xdpi="1198.54"
       inkscape:export-ydpi="1198.54" />
    <text
       xml:space="preserve"
       style="font-size:36px;font-style:normal;font-variant:normal;font-weight:normal;font-stretch:normal;line-height:125%;letter-spacing:0px;word-spacing:0px;fill:#000000;fill-opacity:1;stroke:none;font-family:Arial;-inkscape-font-specification:Arial"
       x="78.564941"
       y="246.79486"
       id="text3830"
       sodipodi:linespacing="125%"
       inkscape:export-filename="/home/black/write/class/stat/stat383-14/class/img/independentSamples.png"
       inkscape:export-xdpi="1198.54"
       inkscape:export-ydpi="1198.54"><tspan
         sodipodi:role="line"
         id="tspan3832"
         x="78.564941"
         y="246.79486">Group I</tspan></text>
    <text
       xml:space="preserve"
       style="font-size:36px;font-style:normal;font-variant:normal;font-weight:normal;font-stretch:normal;line-height:125%;letter-spacing:0px;word-spacing:0px;fill:#000000;fill-opacity:1;stroke:none;font-family:Arial;-inkscape-font-specification:Arial"
       x="568.76593"
       y="289.95026"
       id="text3834"
       sodipodi:linespacing="125%"
       inkscape:export-filename="/home/black/write/class/stat/stat383-14/class/img/independentSamples.png"
       inkscape:export-xdpi="1198.54"
       inkscape:export-ydpi="1198.54"><tspan
         sodipodi:role="line"
         id="tspan3836"
         x="568.76593"
         y="289.95026">Group II</tspan></text>
  </g>
</svg>
